<svg width="2401" height="186" viewBox="0 0 2401 186" fill="none" xmlns="http://www.w3.org/2000/svg">
<g filter="url(#filter0_f)">
<path fill-rule="evenodd" clip-rule="evenodd" d="M34.375 120.189L51.8655 117.545C69.3559 114.901 104.337 109.613 141.261 109.613C176.242 109.613 211.223 114.901 246.204 117.545C281.185 120.189 316.166 120.189 353.09 114.901C388.071 109.613 423.052 99.0366 458.033 91.1045C493.014 83.1724 529.938 77.8843 564.919 80.5283C599.9 83.1724 634.881 93.7485 669.862 88.4604C704.843 83.1724 741.767 62.0201 776.748 56.7321C811.729 51.444 846.71 62.0201 881.691 67.3082C918.615 72.5963 953.596 72.5963 988.577 67.3082C1023.56 62.0201 1058.54 51.444 1093.52 43.5119C1130.44 35.5798 1165.42 30.2918 1200.41 38.2238C1235.39 46.1559 1270.37 67.3082 1307.29 75.2403C1342.27 83.1724 1377.25 77.8843 1412.23 75.2403C1447.22 72.5963 1482.2 72.5963 1519.12 67.3082C1554.1 62.0201 1589.08 51.444 1624.06 46.1559C1659.04 40.8679 1695.97 40.8679 1730.95 48.8C1765.93 56.7321 1800.91 72.5963 1835.89 83.1724C1870.87 93.7485 1907.8 99.0366 1942.78 101.681C1977.76 104.325 2012.74 104.325 2047.72 104.325C2084.65 104.325 2119.63 104.325 2154.61 112.257C2189.59 120.189 2224.57 136.053 2259.55 136.053C2296.47 136.053 2331.46 120.189 2348.95 112.257L2366.44 104.325V151.917H2348.95C2331.46 151.917 2296.47 151.917 2259.55 151.917C2224.57 151.917 2189.59 151.917 2154.61 151.917C2119.63 151.917 2084.65 151.917 2047.72 151.917C2012.74 151.917 1977.76 151.917 1942.78 151.917C1907.8 151.917 1870.87 151.917 1835.89 151.917C1800.91 151.917 1765.93 151.917 1730.95 151.917C1695.97 151.917 1659.04 151.917 1624.06 151.917C1589.08 151.917 1554.1 151.917 1519.12 151.917C1482.2 151.917 1447.22 151.917 1412.23 151.917C1377.25 151.917 1342.27 151.917 1307.29 151.917C1270.37 151.917 1235.39 151.917 1200.41 151.917C1165.42 151.917 1130.44 151.917 1093.52 151.917C1058.54 151.917 1023.56 151.917 988.577 151.917C953.596 151.917 918.615 151.917 881.691 151.917C846.71 151.917 811.729 151.917 776.748 151.917C741.767 151.917 704.843 151.917 669.862 151.917C634.881 151.917 599.9 151.917 564.919 151.917C529.938 151.917 493.014 151.917 458.033 151.917C423.052 151.917 388.071 151.917 353.09 151.917C316.166 151.917 281.185 151.917 246.204 151.917C211.223 151.917 176.242 151.917 141.261 151.917C104.337 151.917 69.3559 151.917 51.8655 151.917H34.375V120.189Z" fill="url(#paint0_linear)"/>
</g>
<defs>
<filter id="filter0_f" x="0.375" y="0.300049" width="2400.06" height="185.617" filterUnits="userSpaceOnUse" color-interpolation-filters="sRGB">
<feFlood flood-opacity="0" result="BackgroundImageFix"/>
<feBlend mode="normal" in="SourceGraphic" in2="BackgroundImageFix" result="shape"/>
<feGaussianBlur stdDeviation="17" result="effect1_foregroundBlur"/>
</filter>
<linearGradient id="paint0_linear" x1="1200.41" y1="427.77" x2="1200.41" y2="-4.87409" gradientUnits="userSpaceOnUse">
<stop stop-color="#6072D9"/>
<stop offset="1" stop-color="#6072D9" stop-opacity="0"/>
</linearGradient>
</defs>
</svg>
