<svg width="2401" height="186" viewBox="0 0 2401 186" fill="none" xmlns="http://www.w3.org/2000/svg">
<g filter="url(#filter0_f)">
<path fill-rule="evenodd" clip-rule="evenodd" d="M2366.44 120.189L2348.95 117.545C2331.46 114.901 2296.48 109.613 2259.55 109.613C2224.57 109.613 2189.59 114.901 2154.61 117.545C2119.63 120.189 2084.65 120.189 2047.72 114.901C2012.74 109.613 1977.76 99.0366 1942.78 91.1045C1907.8 83.1724 1870.87 77.8843 1835.89 80.5283C1800.91 83.1724 1765.93 93.7485 1730.95 88.4604C1695.97 83.1724 1659.05 62.0201 1624.06 56.7321C1589.08 51.444 1554.1 62.0201 1519.12 67.3082C1482.2 72.5963 1447.22 72.5963 1412.24 67.3082C1377.25 62.0201 1342.27 51.444 1307.29 43.5119C1270.37 35.5798 1235.39 30.2918 1200.41 38.2238C1165.43 46.1559 1130.44 67.3082 1093.52 75.2403C1058.54 83.1724 1023.56 77.8843 988.578 75.2403C953.597 72.5963 918.616 72.5963 881.692 67.3082C846.711 62.0201 811.73 51.444 776.749 46.1559C741.768 40.8679 704.844 40.8679 669.863 48.8C634.882 56.7321 599.901 72.5963 564.92 83.1724C529.939 93.7485 493.015 99.0366 458.034 101.681C423.053 104.325 388.072 104.325 353.091 104.325C316.167 104.325 281.186 104.325 246.205 112.257C211.224 120.189 176.243 136.053 141.262 136.053C104.338 136.053 69.3567 120.189 51.8662 112.257L34.3758 104.325V151.917H51.8662C69.3567 151.917 104.338 151.917 141.262 151.917C176.243 151.917 211.224 151.917 246.205 151.917C281.186 151.917 316.167 151.917 353.091 151.917C388.072 151.917 423.053 151.917 458.034 151.917C493.015 151.917 529.939 151.917 564.92 151.917C599.901 151.917 634.882 151.917 669.863 151.917C704.844 151.917 741.768 151.917 776.749 151.917C811.73 151.917 846.711 151.917 881.692 151.917C918.616 151.917 953.597 151.917 988.578 151.917C1023.56 151.917 1058.54 151.917 1093.52 151.917C1130.44 151.917 1165.43 151.917 1200.41 151.917C1235.39 151.917 1270.37 151.917 1307.29 151.917C1342.27 151.917 1377.25 151.917 1412.24 151.917C1447.22 151.917 1482.2 151.917 1519.12 151.917C1554.1 151.917 1589.08 151.917 1624.06 151.917C1659.05 151.917 1695.97 151.917 1730.95 151.917C1765.93 151.917 1800.91 151.917 1835.89 151.917C1870.87 151.917 1907.8 151.917 1942.78 151.917C1977.76 151.917 2012.74 151.917 2047.72 151.917C2084.65 151.917 2119.63 151.917 2154.61 151.917C2189.59 151.917 2224.57 151.917 2259.55 151.917C2296.48 151.917 2331.46 151.917 2348.95 151.917H2366.44V120.189Z" fill="url(#paint0_linear)"/>
</g>
<defs>
<filter id="filter0_f" x="0.375" y="0.300049" width="2400.06" height="185.617" filterUnits="userSpaceOnUse" color-interpolation-filters="sRGB">
<feFlood flood-opacity="0" result="BackgroundImageFix"/>
<feBlend mode="normal" in="SourceGraphic" in2="BackgroundImageFix" result="shape"/>
<feGaussianBlur stdDeviation="17" result="effect1_foregroundBlur"/>
</filter>
<linearGradient id="paint0_linear" x1="1200.41" y1="427.77" x2="1200.41" y2="-4.87409" gradientUnits="userSpaceOnUse">
<stop stop-color="white"/>
<stop offset="1" stop-color="white" stop-opacity="0"/>
</linearGradient>
</defs>
</svg>
