<svg width="22" height="56" viewBox="0 0 22 56" fill="none" xmlns="http://www.w3.org/2000/svg">
<path d="M5.20732 39.2337V36.8337H10.3073V42.8937L7.98732 44.2337H2.32732L0.00732422 42.8937V31.3737L2.32732 30.0337H7.98732L10.3073 31.3737V34.2337H7.50732V32.4337H2.80732V41.8337H7.50732V39.2337H5.20732Z" fill="#37C8CB"/>
<path d="M16.6081 39.2337V36.8337H21.7081V42.8937L19.3881 44.2337H13.7281L11.4081 42.8937V31.3737L13.7281 30.0337H19.3881L21.7081 31.3737V34.2337H18.9081V32.4337H14.2081V41.8337H18.9081V39.2337H16.6081Z" fill="#37C8CB"/>
<path d="M0.00439453 29.1337H10.3028V32.1337H0.00439453V29.1337Z" fill="#37C8CB"/>
<path d="M11.4106 29.1337H21.709V32.1337H11.4106V29.1337Z" fill="#37C8CB"/>
<path d="M0.00732422 42.8837H10.3042V55.1337H9.1278L0.00732422 42.8837Z" fill="#37C8CB"/>
<path d="M11.4214 42.8837H21.7183L12.6122 55.1337H11.4214V42.8837Z" fill="#37C8CB"/>
<path d="M9.06467 0.851074C9.08552 1.05962 9.09595 1.26817 9.09595 1.47673C9.09699 7.29319 0.00732422 11.1952 0.00732422 18.4267C0.00732422 21.5664 2.5996 23.6675 4.71431 25.5101C8.74141 28.4527 9.5412 29.7708 9.5412 30.7322C9.5412 31.3693 9.39209 31.7979 9.39209 32.1336C10.1929 31.0794 10.2857 30.1253 10.2962 29.2108C10.2962 27.3453 8.98437 25.6561 7.59334 23.7447C6.60377 22.3422 4.98125 21.0575 4.98125 19.3651C4.98125 14.7082 11.4776 11.6383 11.4776 6.5518C11.4776 3.58517 9.37541 1.00123 9.06467 0.851074ZM12.9114 9.19309L13.1616 9.64564C13.3087 9.9689 13.3754 10.3276 13.3754 10.7197C13.3754 13.5289 9.74454 17.7124 9.58604 18.0586C9.44944 18.3818 9.39209 18.7291 9.39209 19.0523C9.39209 20.3245 10.342 21.7103 10.512 21.7103C10.6601 21.7103 14.0678 18.2191 14.17 16.1847C14.5662 16.9251 14.7362 17.6071 14.7362 18.289C14.7362 20.8782 12.1085 24.3902 12.1085 24.3902C12.1085 25.118 14.1126 27.7301 14.3399 27.7301C14.4067 27.7301 14.4859 27.6508 14.5422 27.582C16.9312 25.1086 18.7769 22.2306 18.7769 18.971C18.7753 18.4516 18.7299 17.9332 18.6413 17.4214C17.8801 13.2265 13.9531 9.59768 12.9114 9.19309Z" fill="#37C8CB"/>
</svg>
